<?xml version="1.0" encoding="UTF-8"?>
<!DOCTYPE svg PUBLIC "-//W3C//DTD SVG 1.1//EN" "http://www.w3.org/Graphics/SVG/1.1/DTD/svg11.dtd">
<!-- Creator: CorelDRAW 2020 (64-Bit) -->
<svg xmlns="http://www.w3.org/2000/svg" xml:space="preserve" width="102px" height="102px" version="1.1" style="shape-rendering:geometricPrecision; text-rendering:geometricPrecision; image-rendering:optimizeQuality; fill-rule:evenodd; clip-rule:evenodd"
viewBox="0 0 174.136 173.4"
 xmlns:xlink="http://www.w3.org/1999/xlink"
 xmlns:xodm="http://www.corel.com/coreldraw/odm/2003">
 <defs>
  <style type="text/css">
   <![CDATA[
    .fil0 {fill:#999999}
   ]]>
  </style>
 </defs>
 <g id="Слой_x0020_1">
  <metadata id="CorelCorpID_0Corel-Layer"/>
  <path class="fil0" d="M37.975 65.447l22.425 0.053 0.106 72.997 -22.186 0.137c-1.77,-7.823 -1.025,-62.48 -0.345,-73.187zm59.288 30.336l-0.251 42.663 -21.933 0.552 -0.502 -73.75c5.85,-1.002 16.42,-1.103 21.903,0.05 0.891,2.728 0.17,1.813 0.484,3.957 0.824,5.608 -0.712,2.519 1.976,4.077 3.112,-6.009 12.402,-10.983 23.036,-10.011 25.439,2.323 23.609,25.747 23.609,42.692 0,7.677 0.906,26.195 -0.482,32.581l-21.749 0.003c-2.191,-12.346 1.722,-33.903 -0.991,-45.178 -3.138,-13.038 -22.222,-13.953 -25.1,2.364zm-52.012 -65.987c15.429,-5.692 24.884,18.292 8.684,25.184 -11.04,4.697 -22.913,-7.593 -16.524,-19.368 2.296,-4.231 3.05,-4.049 7.84,-5.816zm-44.428 129.023c3.52,15.833 19.48,14.264 28.707,14.263 16.827,-0.001 122.667,0.962 129.835,-0.458 15.694,-3.108 14.469,-19.121 14.468,-28.892 0,-15.951 0.909,-122.541 -0.422,-128.809 -3.371,-15.871 -18.676,-14.623 -28.84,-14.623 -16.336,0.001 -123.233,-0.937 -129.796,0.499 -15.932,3.487 -14.474,19.146 -14.47,28.833 0.007,16.304 -0.961,122.539 0.518,129.187z"/>
 </g>
</svg>
