<?xml version="1.0" encoding="UTF-8"?>
<!DOCTYPE svg PUBLIC "-//W3C//DTD SVG 1.1//EN" "http://www.w3.org/Graphics/SVG/1.1/DTD/svg11.dtd">
<!-- Creator: CorelDRAW 2020 (64-Bit) -->
<svg xmlns="http://www.w3.org/2000/svg" xml:space="preserve" width="52px" height="102px" version="1.1" style="shape-rendering:geometricPrecision; text-rendering:geometricPrecision; image-rendering:optimizeQuality; fill-rule:evenodd; clip-rule:evenodd"
viewBox="0 0 3.604 7.091"
 xmlns:xlink="http://www.w3.org/1999/xlink"
 xmlns:xodm="http://www.corel.com/coreldraw/odm/2003">
 <defs>
  <style type="text/css">
   <![CDATA[
    .fil0 {fill:#999999}
   ]]>
  </style>
 </defs>
 <g id="Слой_x0020_1">
  <metadata id="CorelCorpID_0Corel-Layer"/>
  <path class="fil0" d="M3.604 2.351c-0.298,0 -0.596,0.001 -0.894,0.001 -0.328,0.001 -0.333,0.031 -0.332,-0.124 0,-0.145 0.002,-0.291 0.002,-0.436 0.001,-0.214 -0.029,-0.512 0.349,-0.544 0.265,-0.022 0.59,0.004 0.865,-0.003 0.017,-0.154 0.005,-0.705 0.005,-0.927 0,-0.051 0,-0.103 0.001,-0.155 0.002,-0.146 -0.014,-0.109 -0.017,-0.13 -0.007,-0.058 -1.144,-0.022 -1.276,-0.019 -0.715,0.018 -1.387,0.298 -1.51,1.074 -0.034,0.213 0.001,1.177 -0.039,1.252 -0.014,0.034 0,0.02 -0.758,0.014l0.003 1.193 0.77 0c0,0.387 -0.026,3.413 0.013,3.51 0.069,0.055 0.652,0.026 0.786,0.026 0.261,0 0.538,0.008 0.796,-0.004 0.026,-0.097 0.009,-3.339 0.009,-3.531 0.137,-0.022 0.444,-0.005 0.599,-0.005 0.463,0 0.48,0.051 0.496,-0.102 0.038,-0.365 0.098,-0.724 0.132,-1.09z"/>
 </g>
</svg>
