<?xml version="1.0" encoding="UTF-8"?>
<!DOCTYPE svg PUBLIC "-//W3C//DTD SVG 1.1//EN" "http://www.w3.org/Graphics/SVG/1.1/DTD/svg11.dtd">
<!-- Creator: CorelDRAW 2020 (64-Bit) -->
<svg xmlns="http://www.w3.org/2000/svg" xml:space="preserve" width="24px" height="23px" version="1.1" style="shape-rendering:geometricPrecision; text-rendering:geometricPrecision; image-rendering:optimizeQuality; fill-rule:evenodd; clip-rule:evenodd"
viewBox="0 0 1.252 1.174"
 xmlns:xlink="http://www.w3.org/1999/xlink"
 xmlns:xodm="http://www.corel.com/coreldraw/odm/2003">
 <defs>
  <style type="text/css">
   <![CDATA[
    .fil0 {fill:#CCCCCC}
   ]]>
  </style>
 </defs>
 <g id="Слой_x0020_1">
  <metadata id="CorelCorpID_0Corel-Layer"/>
  <path class="fil0" d="M0 0.716c0,-0.179 0,-0.358 0,-0.537 0,-0.099 0.076,-0.179 0.17,-0.179 0.304,0 0.608,0 0.912,0 0.094,0 0.17,0.08 0.17,0.179 0,0.179 0,0.358 0,0.537 0,0.099 -0.076,0.179 -0.17,0.179 -0.027,0 -0.054,0 -0.08,0 0.032,0.093 0.065,0.186 0.097,0.279 -0.126,-0.093 -0.253,-0.186 -0.379,-0.279 -0.183,0 -0.367,0 -0.55,0 -0.094,0 -0.17,-0.08 -0.17,-0.179zm0.991 -0.39c0.058,0 0.105,0.047 0.105,0.104 0,0.058 -0.047,0.105 -0.105,0.105 -0.057,0 -0.104,-0.047 -0.104,-0.105 0,-0.057 0.047,-0.104 0.104,-0.104zm-0.365 0c0.058,0 0.104,0.047 0.104,0.104 0,0.058 -0.046,0.105 -0.104,0.105 -0.058,0 -0.104,-0.047 -0.104,-0.105 0,-0.057 0.046,-0.104 0.104,-0.104zm-0.365 0c0.057,0 0.104,0.047 0.104,0.104 0,0.058 -0.047,0.105 -0.104,0.105 -0.058,0 -0.104,-0.047 -0.104,-0.105 0,-0.057 0.046,-0.104 0.104,-0.104z"/>
 </g>
</svg>
