<?xml version="1.0" encoding="UTF-8"?>
<!DOCTYPE svg PUBLIC "-//W3C//DTD SVG 1.1//EN" "http://www.w3.org/Graphics/SVG/1.1/DTD/svg11.dtd">
<!-- Creator: CorelDRAW 2020 (64-Bit) -->
<svg xmlns="http://www.w3.org/2000/svg" xml:space="preserve" width="102px" height="102px" version="1.1" style="shape-rendering:geometricPrecision; text-rendering:geometricPrecision; image-rendering:optimizeQuality; fill-rule:evenodd; clip-rule:evenodd"
viewBox="0 0 19.556 19.556"
 xmlns:xlink="http://www.w3.org/1999/xlink"
 xmlns:xodm="http://www.corel.com/coreldraw/odm/2003">
 <defs>
  <style type="text/css">
   <![CDATA[
    .fil0 {fill:#999999}
   ]]>
  </style>
 </defs>
 <g id="Слой_x0020_1">
  <metadata id="CorelCorpID_0Corel-Layer"/>
  <path class="fil0" d="M2.475 0l14.606 0c1.361,0 2.475,1.114 2.475,2.475l0 6.107 -3.144 0c-0.692,-2.979 -3.362,-5.199 -6.551,-5.199 -3.189,0 -5.86,2.22 -6.551,5.199l-3.31 0 0 -6.107c0,-1.361 1.114,-2.475 2.475,-2.475zm14.046 1.609c0.742,0 1.344,0.602 1.344,1.343 0,0.742 -0.602,1.344 -1.344,1.344 -0.742,0 -1.343,-0.602 -1.343,-1.344 0,-0.741 0.601,-1.343 1.343,-1.343zm3.035 9.366l0 6.106c0,1.361 -1.114,2.475 -2.475,2.475l-14.606 0c-1.361,0 -2.475,-1.114 -2.475,-2.475l0 -6.106 3.191 0c0.425,3.305 3.249,5.858 6.67,5.858 3.42,0 6.244,-2.553 6.669,-5.858l3.026 0z"/>
  <circle class="fil0" cx="9.861" cy="10.108" r="4.598"/>
 </g>
</svg>
