<?xml version="1.0" encoding="UTF-8"?>
<!DOCTYPE svg PUBLIC "-//W3C//DTD SVG 1.1//EN" "http://www.w3.org/Graphics/SVG/1.1/DTD/svg11.dtd">
<!-- Creator: CorelDRAW 2020 (64-Bit) -->
<svg xmlns="http://www.w3.org/2000/svg" xml:space="preserve" width="101px" height="101px" version="1.1" style="shape-rendering:geometricPrecision; text-rendering:geometricPrecision; image-rendering:optimizeQuality; fill-rule:evenodd; clip-rule:evenodd"
viewBox="0 0 34.245 34.232"
 xmlns:xlink="http://www.w3.org/1999/xlink"
 xmlns:xodm="http://www.corel.com/coreldraw/odm/2003">
 <defs>
  <style type="text/css">
   <![CDATA[
    .fil0 {fill:#999999}
   ]]>
  </style>
 </defs>
 <g id="Слой_x0020_1">
  <metadata id="CorelCorpID_0Corel-Layer"/>
  <path class="fil0" d="M9.761 22.895c-1.395,0.254 -2.554,-1.152 -3.043,-1.932 -0.654,-1.042 -1.082,-2.519 -1.145,-4.032 -0.378,-9.037 10.814,-13.676 17.926,-9.735 8.394,4.652 5.477,16.756 -0.803,19.413 -3.458,1.463 -5.335,0.465 -7.427,-1.247 -0.493,0.813 -0.908,3.168 -1.202,4.299 -0.506,1.944 -1.47,3.036 -1.611,3.825 4.598,1.686 9.989,0.255 13.494,-1.738 11.636,-6.616 11.36,-25.255 -2.93,-30.661 -13.677,-5.174 -28.011,9.03 -21.325,23.395 1.488,3.196 5.013,6.975 8.567,8.179 -0.043,-4.811 2.501,-11.716 2.434,-13.093 -0.041,-0.819 -0.448,-1.495 -0.463,-2.641 -0.063,-4.952 5.115,-5.988 5.576,-2.375 0.177,1.389 -0.656,3.574 -1.012,4.836 -0.506,1.8 -0.946,3.316 0.479,4.377 3.48,2.592 8.14,-3.356 7.066,-9.892 -0.536,-3.258 -3.247,-5.155 -7.003,-5.15 -6.365,0.007 -9.352,5.834 -8.247,9.673 0.529,1.837 1.938,2.114 0.669,4.499z"/>
 </g>
</svg>
