<?xml version="1.0" encoding="UTF-8"?>
<!DOCTYPE svg PUBLIC "-//W3C//DTD SVG 1.1//EN" "http://www.w3.org/Graphics/SVG/1.1/DTD/svg11.dtd">
<!-- Creator: CorelDRAW 2020 (64-Bit) -->
<svg xmlns="http://www.w3.org/2000/svg" xml:space="preserve" width="145px" height="102px" version="1.1" style="shape-rendering:geometricPrecision; text-rendering:geometricPrecision; image-rendering:optimizeQuality; fill-rule:evenodd; clip-rule:evenodd"
viewBox="0 0 73.514 51.676"
 xmlns:xlink="http://www.w3.org/1999/xlink"
 xmlns:xodm="http://www.corel.com/coreldraw/odm/2003">
 <defs>
  <style type="text/css">
   <![CDATA[
    .fil0 {fill:#999999}
   ]]>
  </style>
 </defs>
 <g id="Слой_x0020_1">
  <metadata id="CorelCorpID_0Corel-Layer"/>
  <path class="fil0" d="M29.274 14.703l19.667 10.212c-0.329,0.356 -0.772,0.528 -1.207,0.757 -2.84,1.497 -17.281,9.077 -18.501,9.548l0.041 -20.517zm-29.222 14.444c0.119,4.404 0.23,10.27 1.457,14.259 1.422,4.622 3.359,6.203 8.46,7.157 4.096,0.766 10.437,0.627 14.838,0.776 4.99,0.168 10.152,0.45 15.118,0.289 5.069,-0.165 10.124,-0.33 15.191,-0.492 10.408,-0.333 16.808,0.316 17.927,-13.312 0.572,-6.969 0.968,-23.201 -0.953,-29.554 -1.294,-4.282 -3.397,-6.801 -8.285,-7.346 -13.467,-1.504 -38.196,-0.89 -53.1,-0.137 -7.763,0.392 -9.685,6.282 -10.263,13.172 -0.406,4.836 -0.522,10.313 -0.39,15.188z"/>
 </g>
</svg>
