<?xml version="1.0" encoding="UTF-8"?>
<!DOCTYPE svg PUBLIC "-//W3C//DTD SVG 1.1//EN" "http://www.w3.org/Graphics/SVG/1.1/DTD/svg11.dtd">
<!-- Creator: CorelDRAW 2020 (64-Bit) -->
<svg xmlns="http://www.w3.org/2000/svg" xml:space="preserve" width="124px" height="101px" version="1.1" style="shape-rendering:geometricPrecision; text-rendering:geometricPrecision; image-rendering:optimizeQuality; fill-rule:evenodd; clip-rule:evenodd"
viewBox="0 0 26.66 21.668"
 xmlns:xlink="http://www.w3.org/1999/xlink"
 xmlns:xodm="http://www.corel.com/coreldraw/odm/2003">
 <defs>
  <style type="text/css">
   <![CDATA[
    .fil0 {fill:#999999}
   ]]>
  </style>
 </defs>
 <g id="Слой_x0020_1">
  <metadata id="CorelCorpID_0Corel-Layer"/>
  <path class="fil0" d="M23.828 3.293c0.783,-0.737 1.761,-1.485 2.118,-2.939 -1.042,0.451 -2.181,1.241 -3.601,1.271 -1.15,-1.718 -4.626,-2.153 -6.7,-0.923 -2.274,1.347 -3.195,4.515 -2.539,5.928 -2.205,0.068 -4.954,-0.957 -6.626,-1.848 -3.013,-1.606 -3.9,-3.268 -4.68,-3.792 -0.704,0.921 -0.878,2.906 -0.518,4.22 0.201,0.734 0.433,1.192 0.824,1.722 0.542,0.736 1.1,1.136 1.177,1.286 -0.905,-0.011 -1.47,-0.376 -2.25,-0.609 0.004,1.953 0.985,3.704 2.425,4.641 0.867,0.565 1.247,0.499 1.598,0.839 -0.69,0.146 -1.342,0.127 -2.091,0.001 0.24,1.287 1.14,2.088 1.83,2.698 1.009,0.893 1.72,0.834 3.121,1.219 -2.342,1.75 -4.393,2.297 -7.916,2.172 0.759,0.745 2.527,1.383 3.666,1.761 1.449,0.482 2.929,0.73 4.621,0.728 3.254,-0.005 6.05,-0.765 8.384,-2.259 3.97,-2.542 7.289,-7.067 7.289,-13.892 0.176,-0.359 1.177,-1.034 1.483,-1.376 0.409,-0.459 0.873,-0.982 1.217,-1.589 -0.921,0.21 -1.805,0.706 -2.832,0.741z"/>
 </g>
</svg>
